<?xml version="1.0" encoding="utf-8"?>
<!-- Generator: Adobe Illustrator 16.0.0, SVG Export Plug-In . SVG Version: 6.00 Build 0)  -->
<!DOCTYPE svg PUBLIC "-//W3C//DTD SVG 1.1//EN" "http://www.w3.org/Graphics/SVG/1.1/DTD/svg11.dtd">
<svg version="1.1" id="Layer_1" xmlns="http://www.w3.org/2000/svg" xmlns:xlink="http://www.w3.org/1999/xlink" x="0px" y="0px"
	 width="160px" height="160px" viewBox="0 0 160 160" enable-background="new 0 0 160 160" xml:space="preserve" fill="white">
<polygon fill="none" points="84.962,41.076 113,57.237 113,24.915 "/>
<polygon fill="none" points="84.962,79.697 113,95.857 113,63.536 "/>
<polygon fill="none" points="78.289,118.319 48,100.861 48,135.778 "/>
<polygon fill="none" points="83,82.23 83,115.786 112.107,99.008 "/>
<polygon fill="none" points="48,58.534 78.289,41.076 48,23.616 "/>
<polygon fill="none" points="45,95.404 45,63.991 17.75,79.698 "/>
<polygon fill="none" points="80,82.62 51.567,99.008 80,115.397 "/>
<polygon fill="none" points="84.826,118.242 113,134.48 113,101.88 "/>
<polygon fill="none" points="116,62.693 116,96.701 145.501,79.698 "/>
<polygon fill="none" points="80,76.774 80,43.998 51.568,60.386 "/>
<polygon fill="none" points="83,43.609 83,77.163 112.105,60.386 "/>
<polygon fill="none" points="78.289,79.697 48,62.238 48,97.155 "/>
<polygon fill="none" points="44.896,60.386 15,43.154 15,77.618 "/>
<polygon fill="none" points="45,102.611 17.206,118.632 45,134.454 "/>
<polygon fill="none" points="146,114.941 146,82.651 118.095,98.857 "/>
<polygon fill="none" points="80,121.108 51.226,137.818 80,154.198 "/>
<polygon fill="none" points="83,120.854 83,154.233 111.834,137.474 "/>
<polygon fill="none" points="146,76.32 146,44.452 118.355,60.386 "/>
<polygon fill="none" points="116,101.314 116,134.979 144.953,118.003 "/>
<polygon fill="none" points="80,38.152 80,5.201 51.297,21.609 "/>
<polygon fill="none" points="83,38.541 111.77,21.96 83,5.166 "/>
<polygon fill="none" points="44.895,99.008 15,81.777 15,116.239 "/>
<polygon fill="none" points="116,58.079 144.949,41.393 116,24.493 "/>
<polygon fill="none" points="45,56.781 45,25.013 17.212,40.765 "/>
<path d="M81.353,0.631L46.824,20.393L12,40.156v79.079l69.436,39.525l33.929-19.77L149,119.222V40.169L81.353,0.631z
	 M84.826,118.242L113,101.88v32.601L84.826,118.242z M80,76.774L51.568,60.386L80,43.998V76.774z M83,43.609l29.105,16.777
	L83,77.163V43.609z M78.289,79.697L48,97.155V62.238L78.289,79.697z M80,82.62v32.777l-28.433-16.39L80,82.62z M83,82.23
	l29.107,16.777L83,115.786V82.23z M84.962,79.697L113,63.536v32.322L84.962,79.697z M84.962,41.076L113,24.915v32.322L84.962,41.076
	z M48,58.534V23.616l30.289,17.459L48,58.534z M45,95.404L17.75,79.698L45,63.991V95.404z M78.289,118.319L48,135.778v-34.917
	L78.289,118.319z M116,62.693l29.501,17.004L116,96.701V62.693z M146,76.32l-27.645-15.934L146,44.452V76.32z M116,58.079V24.493
	l28.949,16.899L116,58.079z M83,38.541V5.166l28.77,16.794L83,38.541z M80,38.152L51.297,21.609L80,5.201V38.152z M45,56.781
	L17.212,40.765L45,25.013V56.781z M44.896,60.386L15,77.618V43.154L44.896,60.386z M44.895,99.008L15,116.239V81.777L44.895,99.008z
	 M45,102.611v31.843l-27.794-15.822L45,102.611z M80,121.108v33.09l-28.774-16.38L80,121.108z M83,120.854l28.834,16.62L83,154.233
	V120.854z M116,101.314l28.953,16.688L116,134.979V101.314z M146,114.941l-27.905-16.084L146,82.651V114.941z"/>
</svg>
