<svg xmlns="http://www.w3.org/2000/svg" xmlns:xlink="http://www.w3.org/1999/xlink" version="1.1" id="Layer_1" x="0px" y="0px" width="100px" height="100px" viewBox="0 0 100 100" enable-background="new 0 0 100 100" xml:space="preserve">
<path fill="#ffffff" d="M89.517,26.603c0-0.35-0.183-0.673-0.481-0.854l-12.84-7.797c-0.005-0.003-0.01-0.004-0.015-0.007  s-0.009-0.007-0.014-0.01c-0.003-0.002-0.007-0.003-0.011-0.005l-12.737-7.734c-0.021-0.017-0.039-0.036-0.062-0.051L50.516,2.348  c-0.005-0.003-0.01-0.004-0.015-0.006c-0.005-0.003-0.009-0.008-0.014-0.011c-0.035-0.02-0.073-0.028-0.109-0.043  c-0.041-0.018-0.08-0.038-0.123-0.05c-0.041-0.011-0.083-0.013-0.125-0.018c-0.044-0.007-0.088-0.016-0.133-0.016  s-0.088,0.009-0.133,0.016c-0.042,0.005-0.084,0.007-0.125,0.019c-0.042,0.011-0.082,0.031-0.123,0.048  c-0.036,0.016-0.074,0.024-0.109,0.044c-0.006,0.003-0.01,0.008-0.015,0.011s-0.01,0.003-0.015,0.006l-12.84,7.797  c-0.008,0.005-0.014,0.013-0.021,0.018l-12.812,7.779c-0.018,0.011-0.031,0.026-0.048,0.039l-12.792,7.768  c-0.299,0.182-0.48,0.505-0.48,0.854c0,0.002,0.001,0.004,0.001,0.007c0,0.002-0.001,0.004-0.001,0.006V42.21  c0,0.001,0,0.002,0,0.003s0,0.002,0,0.003V57.81v15.594c0,0.089,0.012,0.176,0.034,0.26c0.007,0.025,0.021,0.049,0.03,0.074  c0.021,0.056,0.039,0.112,0.069,0.164c0.015,0.026,0.036,0.048,0.054,0.073c0.032,0.045,0.063,0.091,0.103,0.131  c0.024,0.024,0.054,0.042,0.08,0.064c0.036,0.029,0.069,0.063,0.11,0.088l12.794,7.77c0.017,0.012,0.029,0.026,0.046,0.037  l12.841,7.797c0.008,0.005,0.018,0.007,0.026,0.012l12.807,7.776c0.008,0.005,0.017,0.006,0.024,0.011  c0.003,0.001,0.005,0.004,0.008,0.006c0.03,0.017,0.062,0.024,0.093,0.037c0.047,0.021,0.092,0.044,0.141,0.058  c0.065,0.018,0.133,0.023,0.201,0.027c0.018,0.001,0.034,0.007,0.053,0.007h0.001c0.001,0,0.002,0,0.002,0  c0.018,0,0.035-0.006,0.053-0.007c0.068-0.004,0.136-0.01,0.201-0.027c0.048-0.013,0.091-0.036,0.137-0.056  c0.031-0.014,0.065-0.021,0.097-0.039c0.003-0.002,0.005-0.005,0.009-0.007c0.007-0.004,0.016-0.006,0.022-0.01l12.807-7.776  c0.008-0.005,0.018-0.007,0.026-0.012l12.84-7.797c0.012-0.007,0.02-0.018,0.03-0.024l12.814-7.782  c0.042-0.025,0.075-0.059,0.112-0.09c0.025-0.021,0.055-0.039,0.078-0.062c0.037-0.037,0.065-0.081,0.096-0.124  c0.021-0.027,0.044-0.052,0.061-0.081c0.027-0.048,0.045-0.1,0.064-0.151c0.011-0.029,0.026-0.056,0.035-0.086  c0.021-0.084,0.034-0.171,0.034-0.26V57.81V42.216c0-0.001,0-0.002,0-0.003s0-0.002,0-0.003V26.615c0-0.002-0.001-0.004-0.001-0.006  C89.516,26.606,89.517,26.604,89.517,26.603z M87.517,59.587v12.039l-9.913-6.02L87.517,59.587z M22.396,65.606l-9.913,6.02V59.587  L22.396,65.606z M14.039,39.487l-1.556,0.945v-12.04l9.913,6.02L14.039,39.487z M86.59,57.81l-9.913,6.02V51.79l9.541,5.794  L86.59,57.81z M17.125,55.553l6.198-3.763v12.039l-9.913-6.02L17.125,55.553z M60.91,73.403l-9.913,6.021v-12.04L60.91,73.403z   M48.997,79.424l-9.914-6.021l9.914-6.02V79.424z M26.25,34.412l9.906-6.016v12.031l-0.799-0.484L26.25,34.412z M72.914,34.92  l-9.077,5.512V28.393l9.913,6.02L72.914,34.92z M60.91,57.8l-9.913,6.021V51.78l3.091,1.877L60.91,57.8z M48.997,63.82L39.083,57.8  l9.914-6.02V63.82z M39.083,42.206l9.914-6.02v12.039L39.083,42.206z M38.163,40.425V28.394l9.907,6.016L38.163,40.425z   M38.163,56.019V43.987l9.906,6.016l-2.52,1.53L38.163,56.019z M50.997,48.226V36.187l9.913,6.02l-1.999,1.214L50.997,48.226z   M61.837,40.429l-9.914-6.021l9.914-6.019V40.429z M26.25,50.013l9.906-6.016v12.031l-7.968-4.839L26.25,50.013z M38.163,59.591  l9.907,6.016l-9.907,6.016V59.591z M61.837,56.022l-6.183-3.754l-3.73-2.266l6.536-3.969l3.377-2.051V56.022z M64.764,42.21  l9.913-6.02v12.039L64.764,42.21z M48.997,32.626l-9.914-6.02l9.914-6.02V32.626z M25.323,36.189l9.913,6.021l-9.913,6.02V36.189z   M25.323,51.79l6.285,3.816l3.628,2.203l-9.913,6.02V51.79z M36.156,59.591v12.031l-9.906-6.016L36.156,59.591z M61.837,71.626  l-9.914-6.02l9.914-6.02V71.626z M63.837,59.587l9.913,6.02l-9.913,6.02V59.587z M63.837,56.032V43.993l9.913,6.02l-9.508,5.773  L63.837,56.032z M76.677,36.19l9.913,6.02l-9.913,6.02V36.19z M61.837,24.829l-3.377-2.051l-6.537-3.97l9.914-6.02V24.829z   M60.91,26.606l-9.913,6.02V20.587l7.914,4.806L60.91,26.606z M38.163,24.824V12.793l9.907,6.017L38.163,24.824z M23.323,48.229  l-9.913-6.02l9.913-6.021V48.229z M64.764,57.81l0.372-0.226l9.541-5.794v12.039L64.764,57.81z M25.323,20.583l9.913,6.02  l-9.913,6.021V20.583z M12.483,56.032V43.993l9.913,6.02l-1.412,0.857L12.483,56.032z M25.323,67.384l9.913,6.02l-9.913,6.021  V67.384z M38.163,75.185l9.907,6.017l-9.907,6.016V75.185z M61.833,87.217l-9.906-6.016l9.906-6.017V87.217z M74.677,67.384v12.04  l-9.913-6.021L74.677,67.384z M77.604,50.013l9.913-6.02v12.039l-0.405-0.246L77.604,50.013z M87.517,40.432l-9.077-5.512  l-0.836-0.508l9.913-6.02V40.432z M74.677,32.623l-9.909-6.019l9.909-6.018V32.623z M63.837,24.825V12.789l9.91,6.019L63.837,24.825  z M76.677,32.623v-12.04l9.913,6.02L76.677,32.623z M50.997,4.979L60.91,11l-9.913,6.02V4.979z M48.997,4.979v12.04L39.083,11  L48.997,4.979z M36.156,12.781v12.031l-9.906-6.016L36.156,12.781z M23.323,20.583v12.04l-9.913-6.021L23.323,20.583z   M23.323,67.384v12.04l-9.913-6.021L23.323,67.384z M36.156,75.194v12.031L26.25,81.21L36.156,75.194z M48.997,95.018l-9.914-6.02  l9.914-6.02V95.018z M51,95.018V82.979l9.913,6.02L51,95.018z M63.84,87.226V75.194l9.906,6.016L63.84,87.226z M76.677,79.424  v-12.04l9.913,6.02L76.677,79.424z"/>
</svg>
